<svg width="145" height="31" viewBox="0 0 145 31" fill="none" xmlns="http://www.w3.org/2000/svg">
<path d="M9.73888 8.3957C9.65197 8.09357 9.52988 7.82663 9.37261 7.59486C9.21534 7.35896 9.02289 7.1603 8.79526 6.9989C8.57177 6.83335 8.31518 6.70712 8.02547 6.62021C7.7399 6.5333 7.42329 6.48984 7.07564 6.48984C6.42587 6.48984 5.85474 6.65125 5.36223 6.97406C4.87387 7.29688 4.49311 7.76662 4.21996 8.38328C3.94681 8.99581 3.81023 9.74491 3.81023 10.6306C3.81023 11.5163 3.94474 12.2695 4.21375 12.8903C4.48277 13.5111 4.86352 13.985 5.35602 14.3119C5.84853 14.6347 6.43001 14.7962 7.10048 14.7962C7.70886 14.7962 8.22826 14.6886 8.65869 14.4733C9.09325 14.254 9.42434 13.9457 9.65197 13.5483C9.88373 13.151 9.99962 12.6813 9.99962 12.1391L10.5459 12.2198H7.26809V10.196H12.5884V11.7977C12.5884 12.9151 12.3525 13.8753 11.8806 14.6782C11.4088 15.477 10.7591 16.0936 9.93133 16.5282C9.10359 16.9586 8.15584 17.1738 7.08806 17.1738C5.89612 17.1738 4.84904 16.911 3.94681 16.3854C3.04458 15.8557 2.341 15.1045 1.83608 14.1319C1.3353 13.1552 1.08491 11.9963 1.08491 10.6554C1.08491 9.62488 1.23391 8.7061 1.53189 7.89906C1.83401 7.08788 2.25616 6.40086 2.79832 5.838C3.34049 5.27514 3.97164 4.84679 4.69177 4.55294C5.4119 4.25909 6.19204 4.11217 7.03219 4.11217C7.75232 4.11217 8.42278 4.21771 9.04358 4.42878C9.66438 4.63571 10.2148 4.92956 10.6949 5.31032C11.1791 5.69107 11.5744 6.14426 11.8806 6.66987C12.1869 7.19134 12.3835 7.76662 12.4704 8.3957H9.73888ZM17.055 17V4.286H22.071C23.0312 4.286 23.8507 4.45775 24.5294 4.80126C25.2123 5.14063 25.7317 5.62279 26.0876 6.24773C26.4477 6.86853 26.6277 7.599 26.6277 8.43915C26.6277 9.28344 26.4456 10.0098 26.0814 10.6182C25.7172 11.2224 25.1895 11.6859 24.4984 12.0088C23.8113 12.3316 22.9795 12.493 22.0027 12.493H18.6442V10.3326H21.5682C22.0814 10.3326 22.5077 10.2622 22.847 10.1215C23.1864 9.98081 23.4389 9.76974 23.6044 9.48831C23.7741 9.20688 23.8589 8.85716 23.8589 8.43915C23.8589 8.01701 23.7741 7.66108 23.6044 7.37138C23.4389 7.08167 23.1843 6.86232 22.8408 6.71333C22.5015 6.5602 22.0731 6.48363 21.5558 6.48363H19.743V17H17.055ZM23.921 11.2141L27.0809 17H24.1135L21.0219 11.2141H23.921ZM33.1662 17H30.2857L34.6748 4.286H38.1389L42.5217 17H39.6412L36.4565 7.19134H36.3572L33.1662 17ZM32.9862 12.0026H39.7902V14.1009H32.9862V12.0026ZM57.1198 8.73714H54.4007C54.351 8.38535 54.2496 8.07288 54.0965 7.79973C53.9433 7.52244 53.7468 7.28653 53.5067 7.09202C53.2667 6.8975 52.9894 6.74851 52.6748 6.64504C52.3644 6.54157 52.0271 6.48984 51.6629 6.48984C51.0049 6.48984 50.4317 6.65332 49.9433 6.98027C49.455 7.30309 49.0763 7.7749 48.8073 8.3957C48.5382 9.01236 48.4037 9.76146 48.4037 10.643C48.4037 11.5494 48.5382 12.3109 48.8073 12.9275C49.0804 13.5442 49.4612 14.0098 49.9495 14.3243C50.4379 14.6389 51.0028 14.7962 51.6443 14.7962C52.0044 14.7962 52.3375 14.7486 52.6438 14.6534C52.9542 14.5582 53.2294 14.4195 53.4695 14.2374C53.7095 14.0512 53.9082 13.8256 54.0654 13.5608C54.2268 13.2959 54.3386 12.9938 54.4007 12.6544L57.1198 12.6668C57.0494 13.2504 56.8735 13.8132 56.5921 14.3554C56.3148 14.8934 55.9403 15.3756 55.4684 15.8019C55.0008 16.224 54.4421 16.5592 53.7923 16.8076C53.1467 17.0517 52.4162 17.1738 51.6009 17.1738C50.4669 17.1738 49.4529 16.9172 48.5589 16.404C47.6691 15.8908 46.9655 15.1479 46.4482 14.1754C45.935 13.2028 45.6784 12.0253 45.6784 10.643C45.6784 9.25654 45.9392 8.07702 46.4606 7.10443C46.9821 6.13184 47.6898 5.39102 48.5838 4.88196C49.4777 4.36877 50.4834 4.11217 51.6009 4.11217C52.3375 4.11217 53.0204 4.21564 53.6495 4.42257C54.2827 4.62951 54.8435 4.93163 55.3319 5.32894C55.8202 5.72211 56.2175 6.20427 56.5238 6.77541C56.8342 7.34654 57.0329 8.00045 57.1198 8.73714ZM61.4948 17V4.286H64.1829V9.53176H69.6397V4.286H72.3216V17H69.6397V11.748H64.1829V17H61.4948ZM76.9853 17V4.286H85.5523V6.50225H79.6734V9.53176H85.1116V11.748H79.6734V14.7837H85.5772V17H76.9853ZM90.1369 17V4.286H92.825V14.7837H98.2756V17H90.1369ZM102.503 17V4.286H105.191V14.7837H110.642V17H102.503ZM114.869 17V4.286H123.437V6.50225H117.558V9.53176H122.996V11.748H117.558V14.7837H123.461V17H114.869ZM130.188 4.286V5.62693C130.188 6.00768 130.113 6.39672 129.964 6.79403C129.819 7.18721 129.625 7.55969 129.381 7.91147C129.136 8.25912 128.87 8.55504 128.58 8.79922L127.413 8.11013C127.62 7.78317 127.802 7.42104 127.959 7.02373C128.12 6.62641 128.201 6.16495 128.201 5.63934V4.286H130.188ZM141.343 7.94251C141.294 7.44173 141.081 7.0527 140.704 6.77541C140.327 6.49812 139.816 6.35947 139.171 6.35947C138.732 6.35947 138.361 6.42155 138.059 6.54571C137.757 6.66573 137.525 6.83335 137.364 7.04856C137.207 7.26377 137.128 7.50795 137.128 7.78111C137.12 8.00873 137.167 8.20739 137.271 8.37707C137.379 8.54676 137.525 8.69368 137.712 8.81784C137.898 8.93786 138.113 9.0434 138.357 9.13445C138.602 9.22136 138.862 9.29586 139.14 9.35794L140.282 9.63109C140.836 9.75525 141.345 9.9208 141.809 10.1277C142.273 10.3347 142.674 10.5892 143.013 10.8913C143.353 11.1934 143.616 11.5494 143.802 11.9591C143.992 12.3688 144.089 12.8386 144.094 13.3683C144.089 14.1464 143.891 14.821 143.498 15.3921C143.109 15.9591 142.546 16.3999 141.809 16.7144C141.076 17.0248 140.193 17.18 139.158 17.18C138.132 17.18 137.238 17.0228 136.476 16.7082C135.719 16.3937 135.127 15.9281 134.701 15.3114C134.279 14.6906 134.057 13.9229 134.037 13.0082H136.638C136.667 13.4345 136.789 13.7905 137.004 14.076C137.223 14.3575 137.515 14.5706 137.879 14.7155C138.248 14.8562 138.664 14.9265 139.127 14.9265C139.582 14.9265 139.978 14.8603 140.313 14.7279C140.652 14.5954 140.915 14.4113 141.101 14.1754C141.288 13.9395 141.381 13.6684 141.381 13.3621C141.381 13.0765 141.296 12.8365 141.126 12.642C140.961 12.4475 140.716 12.2819 140.394 12.1453C140.075 12.0088 139.684 11.8846 139.22 11.7729L137.836 11.4252C136.764 11.1645 135.918 10.7568 135.297 10.2022C134.676 9.64765 134.368 8.90062 134.372 7.96114C134.368 7.19134 134.573 6.51881 134.986 5.94353C135.404 5.36826 135.978 4.91921 136.706 4.5964C137.434 4.27358 138.262 4.11217 139.189 4.11217C140.133 4.11217 140.956 4.27358 141.66 4.5964C142.368 4.91921 142.918 5.36826 143.311 5.94353C143.705 6.51881 143.907 7.18514 143.92 7.94251H141.343Z" fill="#3D3D3D"/>
<path d="M34.0242 24.4818C33.9673 24.3076 33.8923 24.1515 33.7991 24.0136C33.7077 23.8739 33.5982 23.7549 33.4706 23.6566C33.3447 23.5583 33.2016 23.4833 33.0412 23.4316C32.8809 23.3799 32.705 23.354 32.5136 23.354C32.1997 23.354 31.9143 23.435 31.6574 23.5971C31.4004 23.7592 31.1961 23.9981 31.0443 24.3136C30.8926 24.6292 30.8167 25.0164 30.8167 25.4751C30.8167 25.9338 30.8934 26.3209 31.0469 26.6365C31.2004 26.952 31.4082 27.1909 31.6703 27.353C31.9324 27.5151 32.2273 27.5961 32.5549 27.5961C32.8585 27.5961 33.1257 27.5315 33.3568 27.4021C33.5896 27.2711 33.7707 27.0866 33.9 26.8486C34.0311 26.6089 34.0966 26.3269 34.0966 26.0027L34.2932 26.0441H32.6998V25.4751H34.7174V26.0441C34.7174 26.4804 34.6243 26.8598 34.438 27.1823C34.2535 27.5047 33.9983 27.7548 33.6724 27.9324C33.3482 28.1083 32.9757 28.1962 32.5549 28.1962C32.0859 28.1962 31.6738 28.0859 31.3185 27.8651C30.965 27.6444 30.6891 27.3306 30.4908 26.9236C30.2942 26.5166 30.1959 26.0338 30.1959 25.4751C30.1959 25.056 30.252 24.6792 30.364 24.3447C30.4779 24.0084 30.6382 23.7222 30.8452 23.4859C31.0521 23.2497 31.297 23.0686 31.5798 22.9427C31.8626 22.8168 32.1738 22.7539 32.5136 22.7539C32.7929 22.7539 33.0533 22.7961 33.2947 22.8806C33.5379 22.9634 33.7543 23.0815 33.944 23.235C34.1354 23.3868 34.2949 23.5687 34.4225 23.7808C34.5501 23.9912 34.6381 24.2248 34.6864 24.4818H34.0242ZM36.2531 28.1238V22.8263H38.0431C38.457 22.8263 38.7967 22.897 39.0623 23.0384C39.3278 23.1781 39.5244 23.3704 39.652 23.6152C39.7796 23.8601 39.8434 24.1386 39.8434 24.4507C39.8434 24.7629 39.7796 25.0396 39.652 25.2811C39.5244 25.5225 39.3287 25.7122 39.0649 25.8501C38.801 25.9864 38.4639 26.0545 38.0535 26.0545H36.6049V25.4751H38.0328C38.3156 25.4751 38.5432 25.4337 38.7157 25.3509C38.8898 25.2681 39.0157 25.1509 39.0933 24.9991C39.1726 24.8456 39.2123 24.6628 39.2123 24.4507C39.2123 24.2386 39.1726 24.0533 39.0933 23.8946C39.014 23.736 38.8872 23.6135 38.7131 23.5273C38.5389 23.4393 38.3087 23.3954 38.0224 23.3954H36.8946V28.1238H36.2531ZM38.7467 25.7441L40.0504 28.1238H39.3054L38.0224 25.7441H38.7467ZM41.5667 28.1238H40.8942L42.8393 22.8263H43.5015L45.4467 28.1238H44.7742L43.1911 23.6644H43.1497L41.5667 28.1238ZM41.815 26.0545H44.5259V26.6235H41.815V26.0545ZM50.7228 24.4818H50.0813C50.0433 24.2973 49.9769 24.1352 49.8821 23.9955C49.789 23.8558 49.6752 23.7385 49.5407 23.6437C49.4079 23.5471 49.2604 23.4747 49.0983 23.4264C48.9362 23.3781 48.7672 23.354 48.5914 23.354C48.2706 23.354 47.98 23.435 47.7196 23.5971C47.461 23.7592 47.2549 23.9981 47.1014 24.3136C46.9497 24.6292 46.8738 25.0164 46.8738 25.4751C46.8738 25.9338 46.9497 26.3209 47.1014 26.6365C47.2549 26.952 47.461 27.1909 47.7196 27.353C47.98 27.5151 48.2706 27.5961 48.5914 27.5961C48.7672 27.5961 48.9362 27.572 49.0983 27.5237C49.2604 27.4754 49.4079 27.4039 49.5407 27.309C49.6752 27.2124 49.789 27.0943 49.8821 26.9546C49.9769 26.8132 50.0433 26.6511 50.0813 26.4683H50.7228C50.6745 26.7391 50.5865 26.9814 50.4589 27.1952C50.3313 27.409 50.1727 27.591 49.983 27.741C49.7933 27.8893 49.5803 28.0022 49.3441 28.0798C49.1095 28.1574 48.8586 28.1962 48.5914 28.1962C48.1395 28.1962 47.7378 28.0859 47.386 27.8651C47.0342 27.6444 46.7574 27.3306 46.5556 26.9236C46.3539 26.5166 46.253 26.0338 46.253 25.4751C46.253 24.9163 46.3539 24.4335 46.5556 24.0265C46.7574 23.6196 47.0342 23.3057 47.386 23.085C47.7378 22.8642 48.1395 22.7539 48.5914 22.7539C48.8586 22.7539 49.1095 22.7927 49.3441 22.8703C49.5803 22.9479 49.7933 23.0617 49.983 23.2117C50.1727 23.36 50.3313 23.5411 50.4589 23.7549C50.5865 23.967 50.6745 24.2093 50.7228 24.4818ZM52.1964 28.1238V22.8263H55.3935V23.3954H52.8379V25.1854H55.228V25.7544H52.8379V27.5547H55.4349V28.1238H52.1964ZM60.114 22.8263V28.1238H59.4725V22.8263H60.114ZM66.038 22.8263V28.1238H65.4172L62.5305 23.9644H62.4788V28.1238H61.8373V22.8263H62.4581L65.3552 26.996H65.4069V22.8263H66.038ZM70.2444 28.1238V22.8263H73.4415V23.3954H70.8859V25.1854H73.276V25.7544H70.8859V27.5547H73.4829V28.1238H70.2444ZM75.2521 22.8263L76.8248 27.2857H76.8869L78.4596 22.8263H79.1321L77.1869 28.1238H76.5247L74.5796 22.8263H75.2521ZM80.3943 28.1238V22.8263H83.5914V23.3954H81.0358V25.1854H83.4259V25.7544H81.0358V27.5547H83.6328V28.1238H80.3943ZM85.1847 28.1238V22.8263H86.9747C87.3885 22.8263 87.7283 22.897 87.9938 23.0384C88.2594 23.1781 88.456 23.3704 88.5836 23.6152C88.7112 23.8601 88.775 24.1386 88.775 24.4507C88.775 24.7629 88.7112 25.0396 88.5836 25.2811C88.456 25.5225 88.2603 25.7122 87.9964 25.8501C87.7326 25.9864 87.3954 26.0545 86.985 26.0545H85.5365V25.4751H86.9643C87.2471 25.4751 87.4748 25.4337 87.6472 25.3509C87.8214 25.2681 87.9473 25.1509 88.0249 24.9991C88.1042 24.8456 88.1439 24.6628 88.1439 24.4507C88.1439 24.2386 88.1042 24.0533 88.0249 23.8946C87.9455 23.736 87.8188 23.6135 87.6446 23.5273C87.4705 23.4393 87.2402 23.3954 86.954 23.3954H85.8262V28.1238H85.1847ZM87.6783 25.7441L88.9819 28.1238H88.237L86.954 25.7441H87.6783ZM89.6479 22.8263H90.3825L91.8517 25.2992H91.9138L93.3831 22.8263H94.1177L92.2035 25.9407V28.1238H91.562V25.9407L89.6479 22.8263ZM102.133 24.4818H101.491C101.453 24.2973 101.387 24.1352 101.292 23.9955C101.199 23.8558 101.085 23.7385 100.951 23.6437C100.818 23.5471 100.671 23.4747 100.508 23.4264C100.346 23.3781 100.177 23.354 100.001 23.354C99.6807 23.354 99.3902 23.435 99.1298 23.5971C98.8711 23.7592 98.665 23.9981 98.5116 24.3136C98.3598 24.6292 98.2839 25.0164 98.2839 25.4751C98.2839 25.9338 98.3598 26.3209 98.5116 26.6365C98.665 26.952 98.8711 27.1909 99.1298 27.353C99.3902 27.5151 99.6807 27.5961 100.001 27.5961C100.177 27.5961 100.346 27.572 100.508 27.5237C100.671 27.4754 100.818 27.4039 100.951 27.309C101.085 27.2124 101.199 27.0943 101.292 26.9546C101.387 26.8132 101.453 26.6511 101.491 26.4683H102.133C102.085 26.7391 101.997 26.9814 101.869 27.1952C101.741 27.409 101.583 27.591 101.393 27.741C101.203 27.8893 100.99 28.0022 100.754 28.0798C100.52 28.1574 100.269 28.1962 100.001 28.1962C99.5497 28.1962 99.1479 28.0859 98.7961 27.8651C98.4443 27.6444 98.1675 27.3306 97.9658 26.9236C97.764 26.5166 97.6631 26.0338 97.6631 25.4751C97.6631 24.9163 97.764 24.4335 97.9658 24.0265C98.1675 23.6196 98.4443 23.3057 98.7961 23.085C99.1479 22.8642 99.5497 22.7539 100.001 22.7539C100.269 22.7539 100.52 22.7927 100.754 22.8703C100.99 22.9479 101.203 23.0617 101.393 23.2117C101.583 23.36 101.741 23.5411 101.869 23.7549C101.997 23.967 102.085 24.2093 102.133 24.4818ZM107.083 22.8263H107.725V26.3338C107.725 26.696 107.639 27.0193 107.468 27.3038C107.299 27.5866 107.061 27.81 106.752 27.9738C106.443 28.1359 106.081 28.2169 105.666 28.2169C105.25 28.2169 104.888 28.1359 104.579 27.9738C104.27 27.81 104.031 27.5866 103.86 27.3038C103.691 27.0193 103.607 26.696 103.607 26.3338V22.8263H104.248V26.2821C104.248 26.5408 104.305 26.771 104.419 26.9727C104.533 27.1728 104.695 27.3306 104.905 27.4461C105.117 27.5599 105.371 27.6168 105.666 27.6168C105.96 27.6168 106.214 27.5599 106.426 27.4461C106.638 27.3306 106.8 27.1728 106.912 26.9727C107.026 26.771 107.083 26.5408 107.083 26.2821V22.8263ZM109.443 28.1238V22.8263H111.233C111.648 22.8263 111.988 22.9013 112.252 23.0513C112.517 23.1997 112.714 23.4005 112.842 23.654C112.969 23.9075 113.033 24.1903 113.033 24.5025C113.033 24.8146 112.969 25.0983 112.842 25.3535C112.716 25.6087 112.521 25.8122 112.257 25.9639C111.993 26.114 111.655 26.189 111.243 26.189H109.96V25.6199H111.222C111.507 25.6199 111.735 25.5708 111.908 25.4725C112.08 25.3742 112.205 25.2414 112.283 25.0741C112.362 24.9051 112.402 24.7146 112.402 24.5025C112.402 24.2904 112.362 24.1007 112.283 23.9334C112.205 23.7661 112.079 23.6351 111.905 23.5402C111.731 23.4437 111.5 23.3954 111.212 23.3954H110.084V28.1238H109.443Z" fill="#3D3D3D"/>
</svg>
